<svg width="103" height="48" viewBox="0 0 103 48" fill="none" xmlns="http://www.w3.org/2000/svg">
<rect x="1.19678" y="1" width="100.803" height="46" stroke="#207A0A" stroke-width="2"/>
<path d="M39.1366 19.146V22.818H43.4566V24.492H39.1366V28.326H43.9966V30H37.0846V17.472H43.9966V19.146H39.1366ZM45.84 24.996C45.84 24 46.044 23.118 46.452 22.35C46.872 21.582 47.436 20.988 48.144 20.568C48.864 20.136 49.662 19.92 50.538 19.92C51.186 19.92 51.822 20.064 52.446 20.352C53.082 20.628 53.586 21 53.958 21.468V16.68H56.028V30H53.958V28.506C53.622 28.986 53.154 29.382 52.554 29.694C51.966 30.006 51.288 30.162 50.52 30.162C49.656 30.162 48.864 29.946 48.144 29.514C47.436 29.07 46.872 28.458 46.452 27.678C46.044 26.886 45.84 25.992 45.84 24.996ZM53.958 25.032C53.958 24.348 53.814 23.754 53.526 23.25C53.25 22.746 52.884 22.362 52.428 22.098C51.972 21.834 51.48 21.702 50.952 21.702C50.424 21.702 49.932 21.834 49.476 22.098C49.02 22.35 48.648 22.728 48.36 23.232C48.084 23.724 47.946 24.312 47.946 24.996C47.946 25.68 48.084 26.28 48.36 26.796C48.648 27.312 49.02 27.708 49.476 27.984C49.944 28.248 50.436 28.38 50.952 28.38C51.48 28.38 51.972 28.248 52.428 27.984C52.884 27.72 53.25 27.336 53.526 26.832C53.814 26.316 53.958 25.716 53.958 25.032ZM59.7672 18.768C59.3952 18.768 59.0832 18.642 58.8312 18.39C58.5792 18.138 58.4532 17.826 58.4532 17.454C58.4532 17.082 58.5792 16.77 58.8312 16.518C59.0832 16.266 59.3952 16.14 59.7672 16.14C60.1272 16.14 60.4332 16.266 60.6852 16.518C60.9372 16.77 61.0632 17.082 61.0632 17.454C61.0632 17.826 60.9372 18.138 60.6852 18.39C60.4332 18.642 60.1272 18.768 59.7672 18.768ZM60.7752 20.082V30H58.7232V20.082H60.7752ZM65.8633 21.756V27.246C65.8633 27.618 65.9473 27.888 66.1153 28.056C66.2953 28.212 66.5953 28.29 67.0153 28.29H68.2753V30H66.6553C65.7313 30 65.0233 29.784 64.5313 29.352C64.0393 28.92 63.7933 28.218 63.7933 27.246V21.756H62.6233V20.082H63.7933V17.616H65.8633V20.082H68.2753V21.756H65.8633Z" fill="#084902"/>
</svg>
